<?xml version="1.0" encoding="UTF-8"?>
<!-- Generator: Adobe Illustrator 17.0.0, SVG Export Plug-In . SVG Version: 6.00 Build 0)  -->
<!DOCTYPE svg PUBLIC "-//W3C//DTD SVG 1.1//EN" "http://www.w3.org/Graphics/SVG/1.1/DTD/svg11.dtd">
<svg version="1.1" id="Layer_1" xmlns="http://www.w3.org/2000/svg" xmlns:xlink="http://www.w3.org/1999/xlink" x="0px" y="0px" width="360px" height="240px" viewBox="0 0 360 240" enable-background="new 0 0 360 240" xml:space="preserve">
<path fill="#1E4B8A" d="M251,27.074H112.471v102.844c0,40.051,23.429,68.631,67.752,82.658c0.024,0,1.485,0.453,1.485,0.453  l1.527-0.453C227.574,198.557,251,169.974,251,129.918V27.074z M181.989,208.581l-0.282,0.065l-0.22-0.065  c-42.422-13.415-64.833-40.623-64.765-78.663V31.255h130.099l0.005,98.663C246.826,167.966,224.413,195.166,181.989,208.581z"/>
<path fill="#FFFFFF" d="M116.722,31.255v98.663c-0.068,38.04,22.343,65.248,64.765,78.663l0.22,0.065l0.282-0.065  c42.424-13.415,64.837-40.614,64.837-78.663l-0.005-98.663H116.722z M242.634,128.712c0,36.461-20.605,62.479-59.611,75.243  l-1.316,0.459c0,0-1.309-0.459-1.333-0.459c-38.988-12.771-59.596-38.788-59.596-75.243V35.424h121.856V128.712z"/>
<polygon fill="#3F9BD9" points="214.657,120.104 214.647,120.11 214.654,120.116 "/>
<path fill="#3F9BD9" d="M167.193,92.557l-0.011,0.019c0.005,0.001,0.01,0.003,0.014,0.004L167.193,92.557z"/>
<path fill="#3F9BD9" d="M154.902,189.094l0.014-0.007c-0.007-0.005-0.014-0.01-0.021-0.014L154.902,189.094z"/>
<path fill="#3F9BD9" d="M214.647,120.11c-12.872-13.062-29.189-22.827-47.451-27.53l6.769,50.912L214.647,120.11z"/>
<path fill="#7AB1E2" d="M145.35,159.938l28.615-16.446l-6.769-50.912c-0.005-0.001-0.009-0.003-0.014-0.004l-28.516,46.956  L145.35,159.938z"/>
<path fill="#3F9BD9" d="M167.182,92.576c-3.746-0.964-7.569-1.728-11.467-2.25c-11.385-1.52-22.403-0.96-32.712,1.387v0.007  l15.663,47.812L167.182,92.576z"/>
<polygon fill="#7AB1E2" points="178.637,178.629 198.233,169.99 214.654,120.116 214.647,120.11 173.965,143.491 "/>
<path fill="#3F9BD9" d="M236.657,153.049c0.002-0.003,0.003-0.006,0.003-0.008c-5.146-12.247-12.672-23.45-22.006-32.925  l-16.422,49.874L236.657,153.049z"/>
<path fill="#B7D2EF" d="M154.916,189.087c7.565,5.068,16.424,9.295,26.564,12.608l0.23,0.077h0.003l-3.077-23.143L154.916,189.087z"/>
<path fill="#9DC3E9" d="M178.637,178.629l3.077,23.143l0.223-0.077c2.279-0.745,4.488-1.54,6.639-2.377l9.657-29.329  L178.637,178.629z"/>
<path fill="#7AB1E2" d="M236.657,153.049l-38.425,16.941l-9.657,29.329C213.499,189.637,229.769,173.918,236.657,153.049z"/>
<path fill="#9DC3E9" d="M138.665,139.532l-10.509,17.306c1.399,3.521,3.077,6.886,5.038,10.087l12.157-6.986L138.665,139.532z"/>
<path fill="#9DC3E9" d="M173.965,143.491l-28.615,16.446l9.545,29.136c0.007,0.003,0.014,0.008,0.021,0.014l23.721-10.458  L173.965,143.491z"/>
<path fill="#7AB1E2" d="M123.002,91.72v36.658c0,10.377,1.745,19.882,5.154,28.459l10.509-17.306L123.002,91.72z"/>
<path fill="#B7D2EF" d="M133.193,166.924c5.254,8.579,12.515,15.991,21.701,22.15l-9.545-29.136L133.193,166.924z"/>
<path fill="#1E4B8A" d="M120.778,35.424v93.289c0,36.456,20.608,62.472,59.596,75.243c0.024,0,1.333,0.459,1.333,0.459l1.316-0.459  c39.006-12.765,59.611-38.782,59.611-75.243V35.424H120.778z M181.936,201.695l-0.226,0.077l-0.23-0.077  c-38.26-12.506-58.478-37.859-58.478-73.318V91.713c10.309-2.347,21.328-2.907,32.712-1.387c36.69,4.91,67.247,30.111,80.946,62.714  C229.18,175.716,210.633,192.317,181.936,201.695z"/>
<path fill="#FFFFFF" d="M193.467,45.752c0.009,0.589,0.42,0.735,1.076,0.907c2.318,0.529,2.553,1.385,2.553,3.218v0.265v19.423  v0.272c0,1.824-0.235,2.687-2.553,3.22c-0.655,0.172-1.067,0.315-1.076,0.897v0.992h3.254h4.858h3.252v-0.992  c-0.002-0.589-0.425-0.725-1.07-0.897c-2.319-0.533-2.559-1.395-2.559-3.22v-0.272V50.142v-0.265c0-1.833,0.24-2.689,2.559-3.218  c0.645-0.172,1.069-0.308,1.07-0.907v-0.99h-3.252h-4.858h-3.254V45.752z"/>
<path fill="#FFFFFF" d="M136.116,50.92v18.899c0,1.834,0.204,2.69,2.362,3.223c0.601,0.16,0.984,0.306,0.992,0.904v0.987h-9.354  v-0.987c0.012-0.597,0.398-0.744,1.001-0.904c2.154-0.533,2.365-1.389,2.365-3.223V49.877c0-1.833-0.211-2.689-2.365-3.23  c-0.602-0.16-0.989-0.306-1.001-0.895v-0.99h5.697c1.139,0.024,1.356,0.395,1.897,1.062c0,0,16.627,20.616,16.707,20.713  c0.015-0.123,0-16.66,0-16.66c0-1.833-0.197-2.689-2.355-3.23c-0.608-0.16-0.994-0.306-1.002-0.895v-0.99h9.4v0.99  c-0.003,0.589-0.397,0.735-0.999,0.895c-2.146,0.541-2.365,1.397-2.365,3.23v25.056h-0.516c-0.781,0-1.227-0.594-1.823-1.367  L136.116,50.92z"/>
<path fill="#FFFFFF" d="M190.038,73.057c-1.443-0.306-2.182-1.404-2.997-3.164c0,0-10.226-25.658-10.253-25.706l-1.167,0.08  c-0.485,0.065-0.97,0.099-1.639,1.429c-0.012,0.015-9.579,24.214-9.579,24.214c-0.824,1.751-2.367,2.84-3.82,3.147  c-0.652,0.121-1.072,0.299-1.072,0.897v0.978h3.068h4.753h3.22v-0.978c-0.002-0.597-0.733-0.679-1.366-0.897  c-2.296-0.815-2.03-2.01-1.651-3.228c0,0,2.049-4.962,2.115-5.119h10.719c0.068,0.17,2.209,5.143,2.209,5.143  c0.39,1.212,1.213,2.389-1.086,3.204c-0.626,0.218-1.367,0.299-1.367,0.897v0.978h3.225h5.549h2.221v-0.978  C191.115,73.357,190.691,73.178,190.038,73.057z M170.552,62.333c0.221-0.541,4.666-10.988,4.68-10.988  c0,0,4.023,10.428,4.263,10.988H170.552z"/>
<path fill="#FFFFFF" d="M207.324,44.761v7.2h0.817c0.556-0.01,0.732-0.398,0.939-1.074c0.684-2.406,1.7-3.085,3.415-3.046h5.525  l0.009,21.978c0,1.834-0.655,2.69-2.963,3.223c-0.647,0.16-1.062,0.306-1.076,0.904v0.987h3.247h5.903h3.266v-0.987  c-0.012-0.597-0.43-0.744-1.074-0.904c-2.319-0.533-2.969-1.389-2.969-3.223l0.007-21.978h5.52c1.715-0.039,2.728,0.64,3.415,3.046  c0.209,0.676,0.381,1.064,0.944,1.074h0.88v-7.2H207.324z"/>
</svg>